<svg width="300" height="300" viewBox="0 0 300 300" fill="none" xmlns="http://www.w3.org/2000/svg">
<path d="M277.067 117.111L131.194 49.0649C84.9679 32.0259 33.5942 55.7327 16.6277 102.04C-0.411348 148.267 23.2954 199.64 69.6031 216.607C86.826 222.932 104.76 223.667 121.352 219.617L274.048 169.013C288.6 165.539 297.636 150.789 294.085 136.232C291.836 127.151 285.147 120.127 277.067 117.111Z" fill="#354248"/>
<g clip-path="url(#clip0_2_2)">
<path d="M128.67 198.309L130.289 128.068C128.994 106.602 110.509 90.224 89.0233 91.5626C67.5575 92.8579 51.1794 111.343 52.518 132.829C53.0098 140.822 55.8611 148.12 60.3895 154.042L107.394 206.204C111.334 211.412 118.815 212.437 124.011 208.465C127.247 205.974 128.881 202.068 128.67 198.309Z" fill="#709AAD"/>
<path d="M130.289 128.068L130.061 138.373C128.233 116.244 109.088 99.5371 86.8151 100.881C72.1543 101.767 59.8441 110.244 53.3218 122.238C56.901 105.598 71.1667 92.6303 89.0233 91.5626C110.521 90.2556 128.962 106.614 130.289 128.068Z" fill="#497183"/>
<path d="M168.105 210.069L189.627 160.413C197.477 145.81 215.663 140.317 230.267 148.166C244.87 156.016 250.363 174.202 242.525 188.837C239.622 194.253 235.284 198.41 230.194 201.123L180.457 222.483C175.995 224.857 170.46 223.181 168.087 218.718C166.609 215.896 166.734 212.658 168.105 210.069V210.069Z" fill="#709AAD"/>
<path d="M207.779 145.645L200.399 148.563C216.882 143.988 234.089 153.346 239.057 169.827C242.314 180.632 239.466 191.801 232.54 199.714C243.622 192.662 249.17 178.912 245.206 165.717C240.429 149.846 223.681 140.856 207.779 145.645Z" fill="#394B53"/>
<path d="M182.266 136.035L209.199 107.142C216.676 97.6259 215.044 83.8518 205.527 76.3741C196.011 68.8963 182.237 70.529 174.759 80.0455C171.984 83.5853 170.463 87.6999 170.146 91.8699L170.387 131.37C170.095 135.028 172.831 138.245 176.521 138.525C178.794 138.757 180.919 137.718 182.266 136.035V136.035Z" fill="#709AAD"/>
<path d="M209.21 107.174L205.257 111.402C212.752 101.449 210.967 87.2651 201.121 79.4793C194.642 74.3887 186.288 73.3289 179.078 75.9326C186.802 70.2693 197.639 70.1925 205.539 76.4056C215.024 83.895 216.688 97.6574 209.21 107.174Z" fill="#497183"/>
</g>
<path d="M63.5822 124.478C58.2622 125.451 55.3541 125.969 54.858 126.031C53.6675 126.182 52.3862 125.612 51.0142 124.324C49.6359 122.986 48.8467 121.523 48.6464 119.936C48.3399 117.505 55.2556 115.398 69.3935 113.615C76.6362 112.701 82.0628 112.773 85.6734 113.829C89.2839 114.886 91.2238 116.481 91.4928 118.614C91.5741 119.259 91.2803 119.926 90.6113 120.615C89.936 121.254 89.0279 121.646 87.8869 121.79C86.7459 121.934 84.6531 122.122 81.6083 122.355C78.5635 122.588 75.7978 122.836 73.3112 123.099C73.5847 123.67 73.7715 124.352 73.8716 125.145C73.9717 125.939 73.8712 127.539 73.5699 129.946C73.3183 132.346 72.9344 135.695 72.4183 139.994C71.8958 144.243 71.3868 149.397 70.8912 155.456C70.3893 161.466 69.9623 165.073 69.6101 166.277C69.3013 167.424 68.9237 168.026 68.4772 168.083C67.4355 168.214 66.002 167.437 64.1768 165.753C62.395 164.012 61.429 162.546 61.2788 161.356C61.1287 160.165 61.5262 155.126 62.4714 146.238C63.4103 137.3 63.7806 130.046 63.5822 124.478ZM125.72 132.893C127.704 132.643 129.143 132.663 130.036 132.953C130.973 133.188 131.504 133.801 131.629 134.794C131.798 136.133 129.812 137.769 125.671 139.703C126.246 143.46 126.752 147.075 127.19 150.548C127.622 153.971 127.675 156.585 127.348 158.39C127.015 160.145 126.253 161.098 125.063 161.248C123.872 161.398 122.854 160.922 122.01 159.819C121.208 158.66 120.409 156.72 119.613 153.998C118.865 151.27 117.981 147.653 116.959 143.145C112.043 144.924 108.512 146.302 106.368 147.278C103.85 158.481 101.946 164.164 100.656 164.327C99.6143 164.458 98.1377 163.939 96.2262 162.769C94.3644 161.592 93.3396 160.26 93.1519 158.772C93.0456 157.929 93.6813 155.177 95.0591 150.518C94.147 150.079 93.3059 149.404 92.5359 148.493C91.8092 147.527 91.3864 146.572 91.2675 145.629C91.0611 143.992 93.3195 142.12 98.0429 140.012C98.3146 138.97 98.5707 137.804 98.8111 136.514C99.0949 135.168 99.7861 132.057 100.885 127.181C102.033 122.299 102.906 118.233 103.504 114.982C103.762 113.438 105.125 111.855 107.592 110.233C110.108 108.606 112.11 107.698 113.598 107.51C115.334 107.291 117.176 109.503 119.122 114.146C121.118 118.783 122.895 125.085 124.455 133.053L125.72 132.893ZM108.69 136.326C110.153 135.94 112.28 135.42 115.07 134.765C114.74 133.346 114.182 130.921 113.397 127.493C112.661 124.058 112.122 121.581 111.779 120.062C111.286 122.946 110.257 128.367 108.69 136.326ZM139.53 104.013C143.4 103.525 147.716 103.787 152.48 104.798C157.294 105.804 161.823 107.349 166.067 109.435C170.361 111.514 174.051 114.198 177.137 117.488C180.273 120.771 182.075 124.273 182.544 127.994C182.895 130.772 181.076 134.529 177.087 139.265C173.142 143.946 168.408 148.171 162.887 151.942C157.365 155.712 152.719 157.836 148.949 158.311C148.106 158.417 146.604 157.498 144.444 155.553C142.327 153.552 141.202 152.031 141.071 150.989C140.814 148.955 141.441 143.131 142.949 133.517C144.501 123.847 145.381 117.235 145.588 113.681C143.652 112.716 141.985 111.489 140.588 110.003C139.185 108.466 138.411 107.127 138.267 105.986C138.117 104.796 138.538 104.138 139.53 104.013ZM171.566 127.262C171.366 125.674 169.64 123.775 166.388 121.565C163.129 119.305 159.456 117.551 155.368 116.303C155.539 120.061 154.435 128.289 152.056 140.986C151.938 141.656 151.751 142.763 151.492 144.308C151.276 145.796 151.101 146.801 150.965 147.322C155.62 145.072 160.283 141.687 164.954 137.167C169.619 132.597 171.823 129.296 171.566 127.262ZM222.148 120.731C224.132 120.481 225.571 120.501 226.464 120.791C227.401 121.026 227.932 121.639 228.057 122.631C228.226 123.971 226.24 125.607 222.1 127.54C222.674 131.298 223.181 134.913 223.619 138.386C224.051 141.808 224.103 144.422 223.776 146.227C223.443 147.983 222.682 148.936 221.491 149.086C220.3 149.236 219.283 148.76 218.438 147.657C217.637 146.498 216.838 144.558 216.041 141.836C215.294 139.108 214.409 135.49 213.387 130.983C208.471 132.762 204.941 134.139 202.796 135.116C200.278 146.319 198.374 152.002 197.084 152.164C196.043 152.296 194.566 151.776 192.655 150.606C190.793 149.43 189.768 148.098 189.58 146.61C189.474 145.766 190.11 143.015 191.488 138.356C190.575 137.917 189.734 137.242 188.964 136.331C188.238 135.364 187.815 134.41 187.696 133.467C187.489 131.83 189.748 129.958 194.471 127.85C194.743 126.808 194.999 125.642 195.24 124.351C195.523 123.005 196.214 119.894 197.313 115.019C198.461 110.137 199.334 106.07 199.932 102.82C200.191 101.276 201.553 99.6926 204.02 98.0712C206.536 96.4435 208.538 95.5359 210.026 95.3482C211.763 95.1292 213.604 97.3411 215.55 101.984C217.546 106.621 219.324 112.923 220.883 120.89L222.148 120.731ZM205.119 124.164C206.582 123.778 208.709 123.257 211.499 122.603C211.168 121.183 210.611 118.759 209.825 115.33C209.09 111.895 208.551 109.418 208.208 107.899C207.715 110.784 206.685 116.205 205.119 124.164Z" fill="white"/>
<defs>
<clipPath id="clip0_2_2">
<rect width="172.135" height="172.135" fill="white" transform="translate(97.7813 260.8) rotate(-110.358)"/>
</clipPath>
</defs>
</svg>
